<svg width="50" height="50" viewBox="0 0 50 50" fill="none" xmlns="http://www.w3.org/2000/svg">
<path d="M18.75 37.5V10.4167L43.75 6.25V33.3333" stroke="white" stroke-opacity="0.5" stroke-width="2" stroke-linecap="round" stroke-linejoin="round"/>
<path d="M12.5 43.75C15.9518 43.75 18.75 40.9518 18.75 37.5C18.75 34.0482 15.9518 31.25 12.5 31.25C9.04822 31.25 6.25 34.0482 6.25 37.5C6.25 40.9518 9.04822 43.75 12.5 43.75Z" stroke="white" stroke-opacity="0.5" stroke-width="2" stroke-linecap="round" stroke-linejoin="round"/>
<path d="M37.5 39.5833C40.9518 39.5833 43.75 36.7851 43.75 33.3333C43.75 29.8815 40.9518 27.0833 37.5 27.0833C34.0482 27.0833 31.25 29.8815 31.25 33.3333C31.25 36.7851 34.0482 39.5833 37.5 39.5833Z" stroke="white" stroke-opacity="0.5" stroke-width="2" stroke-linecap="round" stroke-linejoin="round"/>
</svg>
